<svg width="2590" height="553" viewBox="0 0 2590 553" fill="none" xmlns="http://www.w3.org/2000/svg">
<path d="M151.44 174.68V172.68H149.44V174.68H151.44ZM151.44 383H149.44V385H151.44V383ZM230.96 383V385H232.96V383H230.96ZM230.96 317.76V315.76H228.96V317.76H230.96ZM230.96 226.76V224.76H228.96V226.76H230.96ZM230.96 265.68H228.96V267.68H230.96V265.68ZM325.04 319.76C358.115 319.76 383.312 313.93 400.287 301.965C417.39 289.909 425.88 271.818 425.88 248.04H421.88C421.88 270.742 413.85 287.511 397.983 298.695C381.988 309.97 357.765 315.76 325.04 315.76V319.76ZM425.88 248.04V243.56H421.88V248.04H425.88ZM425.88 243.56C425.88 220.053 417.382 202.17 400.278 190.259C383.305 178.439 358.111 172.68 325.04 172.68V176.68C357.769 176.68 381.995 182.401 397.992 193.541C413.858 204.59 421.88 221.147 421.88 243.56H425.88ZM325.04 172.68H151.44V176.68H325.04V172.68ZM149.44 174.68V383H153.44V174.68H149.44ZM151.44 385H230.96V381H151.44V385ZM232.96 383V317.76H228.96V383H232.96ZM230.96 319.76H325.04V315.76H230.96V319.76ZM230.96 228.76H315.52V224.76H230.96V228.76ZM315.52 228.76C324.009 228.76 330.098 230.344 334.019 233.176C337.826 235.926 339.84 240.033 339.84 245.8H343.84C343.84 238.967 341.374 233.554 336.361 229.934C331.462 226.396 324.391 224.76 315.52 224.76V228.76ZM339.84 245.8V246.64H343.84V245.8H339.84ZM339.84 246.64C339.84 252.558 337.818 256.655 334.028 259.363C330.111 262.16 324.025 263.68 315.52 263.68V267.68C324.375 267.68 331.449 266.12 336.352 262.617C341.382 259.025 343.84 253.602 343.84 246.64H339.84ZM315.52 263.68H230.96V267.68H315.52V263.68ZM232.96 265.68V226.76H228.96V265.68H232.96ZM521.351 225.36V223.36H519.351V225.36H521.351ZM521.351 261.2H519.351V263.2H521.351V261.2ZM521.351 311.6V309.6H519.351V311.6H521.351ZM629.991 320.56L628.642 322.037L628.642 322.037L629.991 320.56ZM642.311 383L640.896 384.414L641.482 385H642.311V383ZM723.511 383V385H725.511V383H723.511ZM723.511 381.6H725.511V381.055L725.234 380.586L723.511 381.6ZM708.111 295.08L709.597 293.742L709.585 293.729L709.573 293.715L708.111 295.08ZM676.751 277.72L676.266 275.78L676.295 279.667L676.751 277.72ZM689.911 272.96L689.109 271.128L689.062 271.148L689.016 271.171L689.911 272.96ZM703.351 264.56L702.151 262.96L702.12 262.983L702.089 263.008L703.351 264.56ZM714.551 250.56L712.762 249.666L712.753 249.683L712.745 249.7L714.551 250.56ZM441.831 174.68V172.68H439.831V174.68H441.831ZM441.831 383H439.831V385H441.831V383ZM521.351 383V385H523.351V383H521.351ZM521.351 227.36H612.631V223.36H521.351V227.36ZM612.631 227.36C620.423 227.36 625.945 228.806 629.476 231.385C632.892 233.88 634.711 237.633 634.711 243H638.711C638.711 236.607 636.469 231.54 631.835 228.155C627.317 224.854 620.798 223.36 612.631 223.36V227.36ZM634.711 243V243.28H638.711V243H634.711ZM634.711 243.28C634.711 248.803 632.881 252.624 629.467 255.147C625.939 257.754 620.424 259.2 612.631 259.2V263.2C620.797 263.2 627.322 261.706 631.844 258.363C636.481 254.936 638.711 249.797 638.711 243.28H634.711ZM612.631 259.2H521.351V263.2H612.631V259.2ZM523.351 261.2V225.36H519.351V261.2H523.351ZM521.351 313.6H597.511V309.6H521.351V313.6ZM597.511 313.6C612.452 313.6 622.753 316.66 628.642 322.037L631.339 319.083C624.348 312.7 612.81 309.6 597.511 309.6V313.6ZM628.642 322.037C634.536 327.418 637.791 335.755 637.791 347.72H641.791C641.791 335.045 638.326 325.462 631.339 319.083L628.642 322.037ZM637.791 347.72V372.08H641.791V347.72H637.791ZM637.791 372.08C637.791 374.964 638.005 377.439 638.472 379.46C638.932 381.454 639.68 383.198 640.896 384.414L643.725 381.586C643.261 381.122 642.749 380.206 642.369 378.56C641.996 376.941 641.791 374.796 641.791 372.08H637.791ZM642.311 385H723.511V381H642.311V385ZM725.511 383V381.6H721.511V383H725.511ZM725.234 380.586C722.735 376.337 721.591 368.995 721.591 358.08H717.591C717.591 369.005 718.686 377.343 721.787 382.614L725.234 380.586ZM721.591 358.08V327.28H717.591V358.08H721.591ZM721.591 327.28C721.591 313.975 717.531 302.557 709.597 293.742L706.624 296.418C713.81 304.403 717.591 314.825 717.591 327.28H721.591ZM709.573 293.715C701.432 284.993 690.706 278.932 677.206 275.773L676.295 279.667C689.116 282.668 699.11 288.367 706.649 296.445L709.573 293.715ZM677.236 279.66C681.82 278.514 686.164 277.069 690.805 274.749L689.016 271.171C684.697 273.331 680.641 274.686 676.266 275.78L677.236 279.66ZM690.712 274.792C695.384 272.748 700.016 269.846 704.612 266.112L702.089 263.008C697.725 266.554 693.397 269.252 689.109 271.128L690.712 274.792ZM704.551 266.16C709.306 262.594 713.426 257.573 716.356 251.42L712.745 249.7C710.075 255.307 706.356 259.806 702.151 262.96L704.551 266.16ZM716.34 251.454C719.299 245.535 720.751 238.78 720.751 231.24H716.751C716.751 238.26 715.402 244.385 712.762 249.666L716.34 251.454ZM720.751 231.24V228.16H716.751V231.24H720.751ZM720.751 228.16C720.751 209.712 713.062 195.681 697.812 186.378C682.719 177.17 660.372 172.68 631.111 172.68V176.68C660.089 176.68 681.562 181.15 695.729 189.792C709.739 198.339 716.751 211.048 716.751 228.16H720.751ZM631.111 172.68H441.831V176.68H631.111V172.68ZM439.831 174.68V383H443.831V174.68H439.831ZM441.831 385H521.351V381H441.831V385ZM523.351 383V311.6H519.351V383H523.351ZM834.504 174.68L834.176 172.707L834.176 172.707L834.504 174.68ZM768.984 199.32L770.184 200.92L770.184 200.92L768.984 199.32ZM750.504 216.96L748.914 215.748L748.9 215.766L748.887 215.784L750.504 216.96ZM739.864 236.56L738.007 235.817L738.002 235.83L737.998 235.842L739.864 236.56ZM734.544 255.88L732.566 255.583L732.564 255.597L734.544 255.88ZM734.544 300.68L736.524 300.397L736.522 300.383L734.544 300.68ZM739.864 320.28L741.731 319.562L741.731 319.562L739.864 320.28ZM750.504 340.16L752.122 338.984L752.122 338.984L750.504 340.16ZM768.984 358.08L770.22 356.507L770.202 356.493L770.184 356.48L768.984 358.08ZM796.144 373.2L796.896 371.347L796.874 371.338L796.852 371.329L796.144 373.2ZM834.504 383.28L834.176 385.253L834.176 385.253L834.504 383.28ZM948.744 383.28L949.073 385.253L949.073 385.253L948.744 383.28ZM987.104 373.2L986.379 371.336L986.366 371.341L986.353 371.347L987.104 373.2ZM1014.26 358.08L1013.06 356.48L1013.05 356.493L1013.03 356.507L1014.26 358.08ZM1032.46 340.16L1034.08 341.336L1034.08 341.336L1032.46 340.16ZM1048.42 300.68L1046.45 300.383L1046.44 300.397L1048.42 300.68ZM1048.42 255.88L1050.4 255.597L1050.4 255.583L1048.42 255.88ZM1043.1 236.56L1044.97 235.842L1044.97 235.83L1044.96 235.817L1043.1 236.56ZM1032.46 216.96L1034.08 215.784L1034.07 215.766L1034.06 215.748L1032.46 216.96ZM1013.98 199.32L1012.78 200.92L1012.78 200.92L1013.98 199.32ZM948.464 174.68L948.136 176.653L948.136 176.653L948.464 174.68ZM964.144 297.6L966.001 298.343L966.001 298.343L964.144 297.6ZM952.944 313.56L951.53 312.146L951.53 312.146L952.944 313.56ZM929.144 326.16L929.701 328.081L929.701 328.081L929.144 326.16ZM853.824 325.88L854.427 323.973L854.404 323.966L854.38 323.959L853.824 325.88ZM830.304 313.28L831.756 311.905L831.738 311.885L831.719 311.866L830.304 313.28ZM819.104 297.04L820.961 296.297L820.961 296.297L819.104 297.04ZM818.824 258.96L816.981 258.184L816.981 258.184L818.824 258.96ZM830.024 243.28L831.4 244.732L831.419 244.713L831.439 244.694L830.024 243.28ZM853.544 231.24L853.023 229.309L853.005 229.314L852.988 229.319L853.544 231.24ZM929.144 231.24L929.714 229.323L929.684 229.314L929.653 229.306L929.144 231.24ZM952.664 243.28L951.289 244.732L951.289 244.732L952.664 243.28ZM964.144 258.96L965.988 258.184L965.988 258.184L964.144 258.96ZM885.464 168.76C866.607 168.76 849.416 170.167 834.176 172.707L834.833 176.653C849.833 174.153 866.802 172.76 885.464 172.76V168.76ZM834.176 172.707C818.96 175.243 805.948 178.632 795.437 182.609L796.852 186.351C807.061 182.488 819.809 179.157 834.833 176.653L834.176 172.707ZM795.437 182.609C784.899 186.597 775.774 191.728 767.784 197.72L770.184 200.92C777.875 195.152 786.669 190.203 796.852 186.351L795.437 182.609ZM767.784 197.72C759.842 203.677 753.535 209.682 748.914 215.748L752.095 218.172C756.434 212.478 762.447 206.723 770.184 200.92L767.784 197.72ZM748.887 215.784C744.292 222.101 740.857 228.693 738.007 235.817L741.721 237.303C744.472 230.427 747.756 224.139 752.122 218.136L748.887 215.784ZM737.998 235.842C735.153 243.239 733.431 249.821 732.567 255.583L736.522 256.177C737.338 250.739 738.976 244.441 741.731 237.278L737.998 235.842ZM732.564 255.597C731.706 261.603 731.424 267.865 731.424 274.08H735.424C735.424 267.975 735.702 261.917 736.524 256.163L732.564 255.597ZM731.424 274.08V282.48H735.424V274.08H731.424ZM731.424 282.48C731.424 288.969 731.706 295.239 732.567 300.977L736.522 300.383C735.703 294.921 735.424 288.871 735.424 282.48H731.424ZM732.564 300.963C733.429 307.012 735.152 313.599 737.998 320.998L741.731 319.562C738.977 312.401 737.34 306.108 736.524 300.397L732.564 300.963ZM737.998 320.998C740.851 328.417 744.29 335.016 748.887 341.336L752.122 338.984C747.759 332.984 744.477 326.703 741.731 319.562L737.998 320.998ZM748.887 341.336C753.52 347.707 759.843 353.724 767.784 359.68L770.184 356.48C762.446 350.676 756.449 344.933 752.122 338.984L748.887 341.336ZM767.749 359.653C775.759 365.946 784.899 371.083 795.437 375.071L796.852 371.329C786.67 367.477 777.89 362.534 770.22 356.507L767.749 359.653ZM795.393 375.053C805.931 379.326 818.964 382.718 834.176 385.253L834.833 381.307C819.805 378.802 807.077 375.474 796.896 371.347L795.393 375.053ZM834.176 385.253C849.435 387.796 866.631 388.92 885.464 388.92V384.92C866.778 384.92 849.814 383.804 834.833 381.307L834.176 385.253ZM885.464 388.92H898.064V384.92H885.464V388.92ZM898.064 388.92C916.619 388.92 933.814 387.796 949.073 385.253L948.416 381.307C933.435 383.804 916.47 384.92 898.064 384.92V388.92ZM949.073 385.253C964.285 382.718 977.317 379.326 987.856 375.053L986.353 371.347C976.171 375.474 963.444 378.802 948.416 381.307L949.073 385.253ZM987.829 375.064C998.06 371.085 1007.48 365.955 1015.5 359.653L1013.03 356.507C1005.37 362.525 996.309 367.475 986.379 371.336L987.829 375.064ZM1015.46 359.68C1023.43 353.703 1029.46 347.685 1034.08 341.336L1030.85 338.984C1026.5 344.955 1020.77 350.697 1013.06 356.48L1015.46 359.68ZM1034.08 341.336C1038.68 335.016 1042.12 328.417 1044.97 320.998L1041.24 319.562C1038.49 326.703 1035.21 332.984 1030.85 338.984L1034.08 341.336ZM1044.97 320.998C1047.82 313.599 1049.54 307.012 1050.4 300.963L1046.44 300.397C1045.63 306.108 1043.99 312.401 1041.24 319.562L1044.97 320.998ZM1050.4 300.977C1051.25 295.295 1051.82 289.034 1051.82 282.48H1047.82C1047.82 288.806 1047.27 294.865 1046.45 300.383L1050.4 300.977ZM1051.82 282.48V274.08H1047.82V282.48H1051.82ZM1051.82 274.08C1051.82 267.802 1051.25 261.544 1050.4 255.597L1046.44 256.163C1047.27 261.975 1047.82 268.038 1047.82 274.08H1051.82ZM1050.4 255.583C1049.54 249.821 1047.82 243.239 1044.97 235.842L1041.24 237.278C1043.99 244.441 1045.63 250.739 1046.45 256.177L1050.4 255.583ZM1044.96 235.817C1042.11 228.693 1038.68 222.101 1034.08 215.784L1030.85 218.136C1035.21 224.139 1038.5 230.427 1041.25 237.303L1044.96 235.817ZM1034.06 215.748C1029.43 209.682 1023.13 203.677 1015.18 197.72L1012.78 200.92C1020.52 206.723 1026.53 212.478 1030.87 218.172L1034.06 215.748ZM1015.18 197.72C1007.19 191.728 998.069 186.597 987.532 182.609L986.117 186.351C996.299 190.203 1005.09 195.152 1012.78 200.92L1015.18 197.72ZM987.532 182.609C977.021 178.632 964.009 175.243 948.793 172.707L948.136 176.653C963.16 179.157 975.908 182.488 986.117 186.351L987.532 182.609ZM948.793 172.707C933.555 170.168 916.645 168.76 898.064 168.76V172.76C916.444 172.76 933.133 174.152 948.136 176.653L948.793 172.707ZM898.064 168.76H885.464V172.76H898.064V168.76ZM965.504 279.96C965.504 285.871 964.431 291.499 962.287 296.857L966.001 298.343C968.338 292.501 969.504 286.369 969.504 279.96H965.504ZM962.287 296.857C960.18 302.125 956.451 307.225 951.53 312.146L954.359 314.974C959.517 309.815 963.629 304.275 966.001 298.343L962.287 296.857ZM951.53 312.146C946.53 317.146 939.035 321.215 928.588 324.239L929.701 328.081C940.534 324.945 948.719 320.614 954.359 314.974L951.53 312.146ZM928.588 324.239C918.185 327.25 906.065 328.64 891.624 328.64V332.64C906.304 332.64 918.824 331.23 929.701 328.081L928.588 324.239ZM891.624 328.64C877.176 328.64 864.799 327.248 854.427 323.973L853.222 327.787C864.129 331.232 876.953 332.64 891.624 332.64V328.64ZM854.38 323.959C843.921 320.931 836.457 316.867 831.756 311.905L828.852 314.655C834.232 320.333 842.448 324.669 853.268 327.801L854.38 323.959ZM831.719 311.866C826.55 306.697 823.082 301.598 820.961 296.297L817.247 297.783C819.607 303.682 823.419 309.223 828.89 314.694L831.719 311.866ZM820.961 296.297C818.818 290.939 817.744 285.311 817.744 279.4H813.744C813.744 285.809 814.911 291.941 817.247 297.783L820.961 296.297ZM817.744 279.4V276.04H813.744V279.4H817.744ZM817.744 276.04C817.744 270.065 818.559 264.745 820.668 259.736L816.981 258.184C814.61 263.815 813.744 269.695 813.744 276.04H817.744ZM820.668 259.736C822.79 254.695 826.261 249.6 831.4 244.732L828.649 241.828C823.148 247.04 819.339 252.585 816.981 258.184L820.668 259.736ZM831.439 244.694C836.133 240 843.598 236.201 854.1 233.161L852.988 229.319C842.21 232.439 833.996 236.48 828.61 241.866L831.439 244.694ZM854.066 233.171C864.229 230.424 876.65 228.76 891.624 228.76V224.76C876.359 224.76 863.58 226.456 853.023 229.309L854.066 233.171ZM891.624 228.76C906.028 228.76 918.176 230.422 928.635 233.174L929.653 229.306C918.833 226.458 906.341 224.76 891.624 224.76V228.76ZM928.574 233.157C938.787 236.193 946.291 239.997 951.289 244.732L954.04 241.828C948.398 236.483 940.221 232.447 929.714 229.323L928.574 233.157ZM951.289 244.732C956.465 249.636 960.196 254.735 962.301 259.736L965.988 258.184C963.613 252.545 959.503 247.004 954.04 241.828L951.289 244.732ZM962.301 259.736C964.433 264.8 965.504 270.135 965.504 276.04H969.504C969.504 269.625 968.336 263.76 965.988 258.184L962.301 259.736ZM965.504 276.04V279.96H969.504V276.04H965.504ZM1230.08 382.44L1229.71 380.475L1229.69 380.48L1229.66 380.484L1230.08 382.44ZM1259.76 372.92L1260.63 374.721L1260.63 374.721L1259.76 372.92ZM1281.32 358.64L1279.98 357.16L1279.98 357.16L1281.32 358.64ZM1295.88 341L1297.6 342.017L1297.62 341.988L1297.64 341.958L1295.88 341ZM1304.56 321.12L1302.65 320.532L1302.65 320.532L1304.56 321.12ZM1309.04 300.96L1311.02 301.23L1311.03 301.186L1311.03 301.141L1309.04 300.96ZM1310.16 174.68H1312.16V172.68H1310.16V174.68ZM1230.64 174.68V172.68H1228.64V174.68H1230.64ZM1219.44 313.84L1217.93 312.53L1217.93 312.53L1219.44 313.84ZM1136.28 290.6L1138.27 290.415L1138.11 288.6H1136.28V290.6ZM1058.16 290.6V288.6H1056.16V290.6H1058.16ZM1060.4 316.08L1058.45 316.514L1058.45 316.514L1060.4 316.08ZM1090.36 363.68L1091.61 362.113L1091.61 362.113L1090.36 363.68ZM1124.24 379.64L1124.84 377.732L1124.82 377.725L1124.8 377.718L1124.24 379.64ZM1191.16 388.08C1205.26 388.08 1218.57 386.953 1230.5 384.396L1229.66 380.484C1218.08 382.967 1205.06 384.08 1191.16 384.08V388.08ZM1230.46 384.405C1242.38 382.134 1252.35 378.721 1260.63 374.721L1258.89 371.119C1250.94 374.959 1241.31 378.266 1229.71 380.475L1230.46 384.405ZM1260.63 374.721C1268.9 370.73 1276.35 365.867 1282.67 360.12L1279.98 357.16C1273.98 362.613 1266.87 367.27 1258.89 371.119L1260.63 374.721ZM1282.67 360.12C1288.97 354.393 1293.86 348.359 1297.6 342.017L1294.16 339.983C1290.63 345.961 1286 351.687 1279.98 357.16L1282.67 360.12ZM1297.64 341.958C1301.03 335.735 1304.18 329.165 1306.47 321.708L1302.65 320.532C1300.47 327.635 1297.45 333.945 1294.13 340.042L1297.64 341.958ZM1306.47 321.708C1308.75 314.32 1310.17 307.493 1311.02 301.23L1307.06 300.69C1306.24 306.746 1304.86 313.36 1302.65 320.532L1306.47 321.708ZM1311.03 301.141C1311.59 294.982 1312.16 288.461 1312.16 281.36H1308.16C1308.16 288.259 1307.61 294.618 1307.05 300.779L1311.03 301.141ZM1312.16 281.36V174.68H1308.16V281.36H1312.16ZM1310.16 172.68H1230.64V176.68H1310.16V172.68ZM1228.64 174.68V279.68H1232.64V174.68H1228.64ZM1228.64 279.68C1228.64 293.864 1224.83 304.566 1217.93 312.53L1220.95 315.15C1228.61 306.314 1232.64 294.616 1232.64 279.68H1228.64ZM1217.93 312.53C1211.18 320.324 1200.09 324.44 1184.44 324.44V328.44C1200.72 328.44 1213.15 324.156 1220.95 315.15L1217.93 312.53ZM1184.44 324.44H1182.2V328.44H1184.44V324.44ZM1182.2 324.44C1168.31 324.44 1157.89 321.546 1150.7 315.97C1143.58 310.437 1139.36 302.044 1138.27 290.415L1134.29 290.785C1135.45 303.236 1140.05 312.763 1148.25 319.13C1156.4 325.454 1167.82 328.44 1182.2 328.44V324.44ZM1136.28 288.6H1058.16V292.6H1136.28V288.6ZM1056.16 290.6V292.28H1060.16V290.6H1056.16ZM1056.16 292.28C1056.16 300.764 1056.73 308.762 1058.45 316.514L1062.36 315.646C1060.72 308.278 1060.16 300.596 1060.16 292.28H1056.16ZM1058.45 316.514C1060.19 324.323 1063.64 332.63 1068.74 341.701L1072.23 339.739C1067.25 330.89 1063.98 322.957 1062.36 315.646L1058.45 316.514ZM1068.74 341.701C1073.92 350.911 1080.82 358.664 1089.12 365.247L1091.61 362.113C1083.67 355.816 1077.13 348.449 1072.23 339.739L1068.74 341.701ZM1089.12 365.247C1097.51 371.902 1108.98 377.318 1123.69 381.562L1124.8 377.718C1110.39 373.562 1099.45 368.338 1091.61 362.113L1089.12 365.247ZM1123.64 381.548C1138.18 386.108 1154.92 388.08 1174.08 388.08V384.08C1155.17 384.08 1138.87 382.132 1124.84 377.732L1123.64 381.548ZM1174.08 388.08H1191.16V384.08H1174.08V388.08ZM1335.15 174.68V172.68H1333.15V174.68H1335.15ZM1335.15 383H1333.15V385H1335.15V383ZM1567.83 383V385H1569.83V383H1567.83ZM1567.83 330.92H1569.83V328.92H1567.83V330.92ZM1413.55 330.92H1411.55V332.92H1413.55V330.92ZM1413.55 302.36V300.36H1411.55V302.36H1413.55ZM1562.51 302.36V304.36H1564.51V302.36H1562.51ZM1562.51 251.68H1564.51V249.68H1562.51V251.68ZM1413.55 251.68H1411.55V253.68H1413.55V251.68ZM1413.55 225.64V223.64H1411.55V225.64H1413.55ZM1565.59 225.64V227.64H1567.59V225.64H1565.59ZM1565.59 174.68H1567.59V172.68H1565.59V174.68ZM1333.15 174.68V383H1337.15V174.68H1333.15ZM1335.15 385H1567.83V381H1335.15V385ZM1569.83 383V330.92H1565.83V383H1569.83ZM1567.83 328.92H1413.55V332.92H1567.83V328.92ZM1415.55 330.92V302.36H1411.55V330.92H1415.55ZM1413.55 304.36H1562.51V300.36H1413.55V304.36ZM1564.51 302.36V251.68H1560.51V302.36H1564.51ZM1562.51 249.68H1413.55V253.68H1562.51V249.68ZM1415.55 251.68V225.64H1411.55V251.68H1415.55ZM1413.55 227.64H1565.59V223.64H1413.55V227.64ZM1567.59 225.64V174.68H1563.59V225.64H1567.59ZM1565.59 172.68H1335.15V176.68H1565.59V172.68ZM1804.74 380.48L1804.29 378.531L1804.28 378.534L1804.26 378.538L1804.74 380.48ZM1847.02 364.8L1848.06 366.507L1848.06 366.507L1847.02 364.8ZM1871.66 342.96L1873.25 344.177L1873.26 344.16L1873.27 344.143L1871.66 342.96ZM1883.98 320.56L1885.9 321.12L1885.91 321.083L1885.92 321.045L1883.98 320.56ZM1886.78 296.48H1888.78V294.48H1886.78V296.48ZM1804.46 296.48V294.48H1802.9L1802.52 295.995L1804.46 296.48ZM1802.78 302.08L1804.68 302.712L1804.68 302.712L1802.78 302.08ZM1797.46 310.48L1799.03 311.716L1799.06 311.68L1799.09 311.642L1797.46 310.48ZM1786.26 320.28L1785.28 318.537L1785.24 318.56L1785.2 318.584L1786.26 320.28ZM1766.38 327.56L1766.87 329.5L1766.87 329.498L1766.88 329.497L1766.38 327.56ZM1701.42 325.88L1702.09 323.994L1702.06 323.985L1702.04 323.977L1701.42 325.88ZM1679.58 313L1681.07 311.662L1681.05 311.643L1681.03 311.625L1679.58 313ZM1668.94 296.48L1667.08 297.223L1667.08 297.223L1668.94 296.48ZM1804.18 258.68L1802.27 259.259L1802.7 260.68H1804.18V258.68ZM1886.78 258.68V260.68H1888.78V258.68H1886.78ZM1885.38 241.88L1883.42 242.249L1883.42 242.249L1885.38 241.88ZM1869.7 210.52L1871.24 209.24L1871.22 209.215L1871.2 209.191L1869.7 210.52ZM1851.78 195.68L1852.89 194.016L1852.89 194.016L1851.78 195.68ZM1825.74 182.8L1826.44 180.925L1826.41 180.916L1826.39 180.908L1825.74 182.8ZM1789.34 174.12L1789.65 172.143L1789.65 172.143L1789.34 174.12ZM1665.58 178.04L1665.08 176.103L1665.08 176.103L1665.58 178.04ZM1622.46 195.68L1621.32 194.037L1621.32 194.037L1622.46 195.68ZM1598.1 220.88L1596.41 219.816L1596.41 219.816L1598.1 220.88ZM1586.06 247.76L1584.1 247.355L1584.1 247.368L1586.06 247.76ZM1586.34 308.52L1588.3 308.128L1588.3 308.097L1588.29 308.066L1586.34 308.52ZM1598.66 335.96L1600.37 334.917L1600.35 334.889L1600.33 334.862L1598.66 335.96ZM1623.58 361.72L1624.75 360.099L1624.74 360.091L1624.73 360.084L1623.58 361.72ZM1666.42 379.64L1666.95 377.71L1666.93 377.707L1666.92 377.703L1666.42 379.64ZM1741.74 388.92C1765.64 388.92 1786.81 386.953 1805.22 382.422L1804.26 378.538C1786.27 382.967 1765.44 384.92 1741.74 384.92V388.92ZM1805.19 382.429C1823.51 378.201 1837.74 372.818 1848.06 366.507L1845.98 363.093C1836.15 369.102 1822.37 374.359 1804.29 378.531L1805.19 382.429ZM1848.06 366.507C1858.34 360.227 1866.65 352.785 1873.25 344.177L1870.07 341.743C1863.79 349.935 1855.86 357.053 1845.98 363.093L1848.06 366.507ZM1873.27 344.143C1879.48 335.678 1883.84 328.175 1885.9 321.12L1882.06 320C1880.2 326.385 1876.16 333.442 1870.05 341.777L1873.27 344.143ZM1885.92 321.045C1887.62 314.244 1888.78 307.628 1888.78 300.96H1884.78C1884.78 307.172 1883.7 313.436 1882.04 320.075L1885.92 321.045ZM1888.78 300.96V296.48H1884.78V300.96H1888.78ZM1886.78 294.48H1804.46V298.48H1886.78V294.48ZM1802.52 295.995C1801.98 298.154 1801.44 299.77 1800.88 301.448L1804.68 302.712C1805.24 301.03 1805.82 299.286 1806.4 296.965L1802.52 295.995ZM1800.88 301.448C1800.69 302.022 1800.19 302.954 1799.28 304.35C1798.4 305.707 1797.24 307.351 1795.83 309.318L1799.09 311.642C1800.48 309.689 1801.7 307.973 1802.64 306.53C1803.55 305.126 1804.31 303.818 1804.68 302.712L1800.88 301.448ZM1795.89 309.244C1792.94 312.996 1789.49 316.167 1785.28 318.537L1787.24 322.023C1791.99 319.353 1795.82 315.804 1799.03 311.716L1795.89 309.244ZM1785.2 318.584C1781.01 321.205 1774.56 323.384 1765.88 325.623L1766.88 329.497C1775.57 327.256 1782.56 324.955 1787.32 321.976L1785.2 318.584ZM1765.9 325.62C1757.16 327.805 1747.26 328.64 1735.86 328.64V332.64C1747.43 332.64 1757.69 331.795 1766.87 329.5L1765.9 325.62ZM1735.86 328.64C1722.54 328.64 1711.31 327.249 1702.09 323.994L1700.76 327.766C1710.57 331.231 1722.3 332.64 1735.86 332.64V328.64ZM1702.04 323.977C1692.72 320.964 1685.8 316.916 1681.07 311.662L1678.09 314.338C1683.45 320.284 1691.08 324.636 1700.81 327.783L1702.04 323.977ZM1681.03 311.625C1676.18 306.498 1672.95 301.116 1670.8 295.737L1667.08 297.223C1669.41 303.044 1672.91 308.862 1678.13 314.375L1681.03 311.625ZM1670.8 295.737C1668.68 290.433 1667.86 284.818 1667.86 278.84H1663.86C1663.86 285.182 1664.73 291.327 1667.08 297.223L1670.8 295.737ZM1667.86 278.84V275.48H1663.86V278.84H1667.86ZM1667.86 275.48C1667.86 259.783 1673.44 248.266 1684.44 240.579C1695.57 232.801 1712.51 228.76 1735.58 228.76V224.76C1712.17 224.76 1694.26 228.839 1682.15 237.301C1669.91 245.854 1663.86 258.697 1663.86 275.48H1667.86ZM1735.58 228.76C1755.04 228.76 1770.25 231.406 1781.32 236.554C1792.33 241.67 1799.24 249.243 1802.27 259.259L1806.1 258.101C1802.69 246.837 1794.89 238.45 1783.01 232.926C1771.19 227.434 1755.33 224.76 1735.58 224.76V228.76ZM1804.18 260.68H1886.78V256.68H1804.18V260.68ZM1888.78 258.68V255.04H1884.78V258.68H1888.78ZM1888.78 255.04C1888.78 250.673 1888.2 246.061 1887.35 241.511L1883.42 242.249C1884.24 246.659 1884.78 251.007 1884.78 255.04H1888.78ZM1887.35 241.511C1886.47 236.824 1884.72 231.608 1881.85 225.866L1878.27 227.654C1881 233.112 1882.61 237.976 1883.42 242.249L1887.35 241.511ZM1881.85 225.866C1879.01 220.175 1875.57 214.433 1871.24 209.24L1868.17 211.8C1872.24 216.687 1875.52 222.145 1878.27 227.654L1881.85 225.866ZM1871.2 209.191C1866.56 203.975 1860.53 199.106 1852.89 194.016L1850.67 197.344C1858.16 202.334 1863.88 206.985 1868.21 211.849L1871.2 209.191ZM1852.89 194.016C1845.17 188.869 1836.34 184.605 1826.44 180.925L1825.05 184.675C1834.74 188.275 1843.27 192.411 1850.67 197.344L1852.89 194.016ZM1826.39 180.908C1816.47 177.507 1804.31 174.4 1789.65 172.143L1789.04 176.097C1803.49 178.32 1815.41 181.373 1825.09 184.692L1826.39 180.908ZM1789.65 172.143C1774.97 169.886 1759.19 168.76 1741.74 168.76V172.76C1759.02 172.76 1774.59 173.874 1789.04 176.097L1789.65 172.143ZM1741.74 168.76H1730.82V172.76H1741.74V168.76ZM1730.82 168.76C1705.77 168.76 1683.76 171.292 1665.08 176.103L1666.08 179.977C1684.36 175.268 1706.03 172.76 1730.82 172.76V168.76ZM1665.08 176.103C1646.5 180.89 1631.68 186.844 1621.32 194.037L1623.6 197.323C1633.4 190.516 1647.71 184.71 1666.08 179.977L1665.08 176.103ZM1621.32 194.037C1611.03 201.181 1602.72 209.774 1596.41 219.816L1599.79 221.944C1605.8 212.386 1613.73 204.178 1623.6 197.323L1621.32 194.037ZM1596.41 219.816C1590.19 229.708 1585.85 238.901 1584.1 247.355L1588.02 248.165C1589.63 240.379 1593.69 231.652 1599.79 221.944L1596.41 219.816ZM1584.1 247.368C1582.39 255.905 1581.54 264.716 1581.54 274.08H1585.54C1585.54 264.964 1586.37 256.415 1588.02 248.152L1584.1 247.368ZM1581.54 274.08V282.2H1585.54V274.08H1581.54ZM1581.54 282.2C1581.54 291.562 1582.39 300.398 1584.39 308.974L1588.29 308.066C1586.37 299.842 1585.54 291.318 1585.54 282.2H1581.54ZM1584.38 308.912C1586.13 317.646 1590.46 327.127 1596.99 337.058L1600.33 334.862C1593.98 325.193 1589.92 316.194 1588.3 308.128L1584.38 308.912ZM1596.96 337.003C1603.28 347.36 1611.89 355.951 1622.43 363.356L1624.73 360.084C1614.55 352.929 1606.36 344.72 1600.37 334.917L1596.96 337.003ZM1622.41 363.341C1632.78 370.829 1647.33 376.788 1665.92 381.577L1666.92 377.703C1648.55 372.972 1634.54 367.171 1624.75 360.099L1622.41 363.341ZM1665.9 381.57C1684.6 386.671 1706.07 388.92 1730.82 388.92V384.92C1706.29 384.92 1685.2 382.689 1666.95 377.71L1665.9 381.57ZM1730.82 388.92H1741.74V384.92H1730.82V388.92ZM1985.7 383H1983.7V385H1985.7V383ZM2065.22 383V385H2067.22V383H2065.22ZM2065.22 231.52V229.52H2063.22V231.52H2065.22ZM2155.1 231.52V233.52H2157.1V231.52H2155.1ZM2155.1 174.68H2157.1V172.68H2155.1V174.68ZM1895.82 174.68V172.68H1893.82V174.68H1895.82ZM1895.82 231.52H1893.82V233.52H1895.82V231.52ZM1985.7 231.52H1987.7V229.52H1985.7V231.52ZM1985.7 385H2065.22V381H1985.7V385ZM2067.22 383V231.52H2063.22V383H2067.22ZM2065.22 233.52H2155.1V229.52H2065.22V233.52ZM2157.1 231.52V174.68H2153.1V231.52H2157.1ZM2155.1 172.68H1895.82V176.68H2155.1V172.68ZM1893.82 174.68V231.52H1897.82V174.68H1893.82ZM1895.82 233.52H1985.7V229.52H1895.82V233.52ZM1983.7 231.52V383H1987.7V231.52H1983.7ZM2410.64 372.36L2409.76 370.56L2409.76 370.56L2410.64 372.36ZM2433.04 356.12L2431.53 354.808L2431.53 354.808L2433.04 356.12ZM2444.24 337.08L2446.14 337.686L2446.16 337.647L2446.17 337.606L2444.24 337.08ZM2421.56 265.96L2422.57 264.232L2422.56 264.229L2422.55 264.225L2421.56 265.96ZM2337 249.44L2337.05 247.441L2337.04 247.44L2337 249.44ZM2299.48 248.6L2299.52 246.6L2299.5 246.6H2299.48V248.6ZM2270.36 246.08L2270.84 244.14L2270.83 244.137L2270.82 244.135L2270.36 246.08ZM2256.92 240.48L2258.42 239.163L2258.38 239.113L2258.33 239.066L2256.92 240.48ZM2256.64 224.8L2258.16 226.102L2258.16 226.102L2256.64 224.8ZM2269.8 219.48L2270.25 221.429L2270.26 221.427L2270.26 221.425L2269.8 219.48ZM2353.24 239.08L2351.25 239.309L2351.46 241.08H2353.24V239.08ZM2439.76 239.08V241.08H2441.76V239.08H2439.76ZM2238.44 174.68L2238.75 176.656L2238.75 176.656L2238.44 174.68ZM2204 183.64L2203.22 181.796L2203.21 181.802L2203.2 181.808L2204 183.64ZM2182.72 197.64L2184.13 199.054L2184.15 199.036L2184.17 199.017L2182.72 197.64ZM2171.52 215L2173.39 215.712L2173.4 215.673L2173.41 215.632L2171.52 215ZM2270.64 299.84L2270.7 297.841L2270.69 297.841L2270.64 299.84ZM2309.28 300.96L2309.36 298.962L2309.35 298.961L2309.34 298.961L2309.28 300.96ZM2341.2 304.32L2341.65 302.371L2341.65 302.371L2341.2 304.32ZM2355.2 310.48L2353.69 311.797L2353.69 311.797L2355.2 310.48ZM2349.6 333.72L2350.61 335.448L2350.61 335.448L2349.6 333.72ZM2333.92 338.2L2334.22 340.177L2334.23 340.175L2333.92 338.2ZM2252.72 310.2L2254.71 310.057L2254.58 308.2H2252.72V310.2ZM2165.36 310.2V308.2H2163.36V310.2H2165.36ZM2317.96 388.92C2339.02 388.92 2357.63 387.798 2373.47 384.969L2372.77 381.031C2357.25 383.802 2338.9 384.92 2317.96 384.92V388.92ZM2373.47 384.969C2389.2 382.159 2402.02 378.761 2411.51 374.16L2409.76 370.56C2400.78 374.919 2388.39 378.241 2372.77 381.031L2373.47 384.969ZM2411.51 374.16C2420.92 369.599 2428.72 364.132 2434.55 357.432L2431.53 354.808C2426.15 360.988 2418.84 366.161 2409.76 370.56L2411.51 374.16ZM2434.55 357.432C2440.3 350.82 2444.09 344.145 2446.14 337.686L2442.33 336.474C2440.47 342.335 2436.98 348.54 2431.53 354.808L2434.55 357.432ZM2446.17 337.606C2447.89 331.291 2449.04 324.113 2449.04 316.08H2445.04C2445.04 323.727 2443.95 330.549 2442.31 336.554L2446.17 337.606ZM2449.04 316.08V312.16H2445.04V316.08H2449.04ZM2449.04 312.16C2449.04 290.496 2440.02 274.414 2422.57 264.232L2420.55 267.688C2436.7 277.106 2445.04 291.824 2445.04 312.16H2449.04ZM2422.55 264.225C2405.02 254.168 2376.33 248.563 2337.05 247.441L2336.94 251.439C2376.07 252.557 2403.93 258.152 2420.56 267.695L2422.55 264.225ZM2337.04 247.44L2299.52 246.6L2299.43 250.599L2336.95 251.439L2337.04 247.44ZM2299.48 246.6C2286.93 246.6 2277.32 245.76 2270.84 244.14L2269.87 248.02C2276.83 249.76 2286.83 250.6 2299.48 250.6V246.6ZM2270.82 244.135C2267.36 243.304 2264.6 242.492 2262.5 241.637C2260.36 240.769 2259.1 239.934 2258.42 239.163L2255.41 241.797C2256.7 243.266 2258.65 244.391 2260.99 245.343C2263.37 246.308 2266.35 247.176 2269.89 248.025L2270.82 244.135ZM2258.33 239.066C2256.85 237.585 2256.12 235.638 2256.12 232.64H2252.12C2252.12 236.362 2253.06 239.455 2255.5 241.894L2258.33 239.066ZM2256.12 232.64V232.36H2252.12V232.64H2256.12ZM2256.12 232.36C2256.12 229.661 2256.84 227.632 2258.16 226.102L2255.12 223.498C2253.07 225.888 2252.12 228.899 2252.12 232.36H2256.12ZM2258.16 226.102C2258.68 225.489 2259.79 224.726 2261.87 223.89C2263.9 223.071 2266.65 222.258 2270.25 221.429L2269.35 217.531C2265.66 218.382 2262.68 219.249 2260.37 220.18C2258.1 221.094 2256.27 222.151 2255.12 223.498L2258.16 226.102ZM2270.26 221.425C2277.03 219.8 2286.93 218.96 2300.04 218.96V214.96C2286.83 214.96 2276.56 215.8 2269.33 217.535L2270.26 221.425ZM2300.04 218.96H2302.84V214.96H2300.04V218.96ZM2302.84 218.96C2318.69 218.96 2330.54 220.845 2338.57 224.389C2346.51 227.895 2350.51 232.915 2351.25 239.309L2355.22 238.851C2354.28 230.685 2349.05 224.645 2340.19 220.73C2331.41 216.855 2318.91 214.96 2302.84 214.96V218.96ZM2353.24 241.08H2439.76V237.08H2353.24V241.08ZM2441.76 239.08V236.84H2437.76V239.08H2441.76ZM2441.76 236.84C2441.76 225.583 2439.03 215.626 2433.52 207.05C2428.01 198.483 2419.8 191.407 2409.01 185.786C2387.47 174.574 2355.45 169.04 2313.2 169.04V173.04C2355.23 173.04 2386.48 178.566 2407.16 189.334C2417.47 194.703 2425.1 201.347 2430.15 209.213C2435.2 217.069 2437.76 226.257 2437.76 236.84H2441.76ZM2313.2 169.04H2288.28V173.04H2313.2V169.04ZM2288.28 169.04C2269.14 169.04 2252.52 170.447 2238.13 172.704L2238.75 176.656C2252.92 174.433 2269.34 173.04 2288.28 173.04V169.04ZM2238.13 172.704C2223.75 174.96 2212.1 178.074 2203.22 181.796L2204.77 185.484C2213.26 181.926 2224.57 178.88 2238.75 176.656L2238.13 172.704ZM2203.2 181.808C2194.08 185.796 2186.83 190.41 2181.27 196.262L2184.17 199.017C2189.25 193.67 2195.99 189.324 2204.8 185.472L2203.2 181.808ZM2181.3 196.226C2175.51 202.016 2171.69 208.156 2169.62 214.368L2173.41 215.632C2175.26 210.084 2178.72 204.464 2184.13 199.054L2181.3 196.226ZM2169.65 214.288C2167.29 220.471 2166.44 227.173 2166.44 234.6H2170.44C2170.44 227.467 2171.26 221.289 2173.39 215.712L2169.65 214.288ZM2166.44 234.6V237.12H2170.44V234.6H2166.44ZM2166.44 237.12C2166.44 257.829 2175.26 273.737 2192.87 284.568C2210.32 295.307 2236.29 300.996 2270.59 301.839L2270.69 297.841C2236.66 297.004 2211.53 291.353 2194.97 281.162C2178.55 271.063 2170.44 256.451 2170.44 237.12H2166.44ZM2270.58 301.839L2309.22 302.959L2309.34 298.961L2270.7 297.841L2270.58 301.839ZM2309.2 302.958C2323.16 303.517 2333.65 304.631 2340.75 306.269L2341.65 302.371C2334.18 300.649 2323.39 299.523 2309.36 298.962L2309.2 302.958ZM2340.75 306.269C2344.3 307.088 2347.18 308.032 2349.38 309.015C2351.61 310.014 2352.99 310.99 2353.69 311.797L2356.7 309.163C2355.45 307.73 2353.47 306.466 2351.01 305.365C2348.52 304.248 2345.38 303.232 2341.65 302.371L2340.75 306.269ZM2353.69 311.797C2355.28 313.609 2356.28 316.193 2356.28 319.72H2360.28C2360.28 315.407 2359.04 311.831 2356.7 309.163L2353.69 311.797ZM2356.28 319.72V320H2360.28V319.72H2356.28ZM2356.28 320C2356.28 322.391 2355.56 324.599 2354.53 326.666L2358.11 328.454C2359.31 326.041 2360.28 323.209 2360.28 320H2356.28ZM2354.53 326.666C2353.67 328.383 2351.84 330.099 2348.59 331.992L2350.61 335.448C2354.08 333.421 2356.73 331.217 2358.11 328.454L2354.53 326.666ZM2348.59 331.992C2345.58 333.75 2340.58 335.108 2333.6 336.225L2334.23 340.175C2341.25 339.052 2346.9 337.61 2350.61 335.448L2348.59 331.992ZM2333.61 336.223C2326.5 337.318 2317.95 337.6 2307.32 337.6V341.6C2317.97 341.6 2326.78 341.322 2334.22 340.177L2333.61 336.223ZM2307.32 337.6H2304.8V341.6H2307.32V337.6ZM2304.8 337.6C2288.28 337.6 2276.01 335.161 2267.77 330.508C2259.66 325.932 2255.36 319.177 2254.71 310.057L2250.72 310.342C2251.47 320.823 2256.55 328.768 2265.8 333.992C2274.92 339.139 2288 341.6 2304.8 341.6V337.6ZM2252.72 308.2H2165.36V312.2H2252.72V308.2ZM2163.36 310.2V313H2167.36V310.2H2163.36ZM2163.36 313C2163.36 338.346 2174.3 357.487 2196.1 370.169C2217.73 382.753 2249.93 388.92 2292.48 388.92V384.92C2250.19 384.92 2218.83 378.767 2198.11 366.711C2177.55 354.753 2167.36 336.934 2167.36 313H2163.36ZM2292.48 388.92H2317.96V384.92H2292.48V388.92Z" fill="white"/>
</svg>
