<svg width="2590" height="553" viewBox="0 0 2590 553" fill="none" xmlns="http://www.w3.org/2000/svg">
<path d="M325.04 317.76C390.84 317.76 423.88 294.52 423.88 248.04V243.56C423.88 197.64 390.84 174.68 325.04 174.68H151.44V383H230.96V317.76H325.04ZM230.96 226.76H315.52C332.88 226.76 341.84 233.2 341.84 245.8V246.64C341.84 259.52 332.88 265.68 315.52 265.68H230.96V226.76ZM521.351 225.36H612.631C628.591 225.36 636.711 231.24 636.711 243V243.28C636.711 255.32 628.591 261.2 612.631 261.2H521.351V225.36ZM521.351 311.6H597.511C612.631 311.6 623.551 314.68 629.991 320.56C636.431 326.44 639.791 335.4 639.791 347.72V372.08C639.791 377.68 640.631 381.32 642.311 383H723.511V381.6C720.711 376.84 719.591 369 719.591 358.08V327.28C719.591 314.4 715.671 303.48 708.111 295.08C700.271 286.68 689.911 280.8 676.751 277.72C681.231 276.6 685.431 275.2 689.911 272.96C694.391 271 698.871 268.2 703.351 264.56C707.831 261.2 711.751 256.44 714.551 250.56C717.351 244.96 718.751 238.52 718.751 231.24V228.16C718.751 192.6 689.351 174.68 631.111 174.68H441.831V383H521.351V311.6ZM885.464 170.76C866.704 170.76 849.624 172.16 834.504 174.68C819.384 177.2 806.504 180.56 796.144 184.48C785.784 188.4 776.824 193.44 768.984 199.32C761.144 205.2 754.984 211.08 750.504 216.96C746.024 223.12 742.664 229.56 739.864 236.56C737.064 243.84 735.384 250.28 734.544 255.88C733.704 261.76 733.424 267.92 733.424 274.08V282.48C733.424 288.92 733.704 295.08 734.544 300.68C735.384 306.56 737.064 313 739.864 320.28C742.664 327.56 746.024 334 750.504 340.16C754.984 346.32 761.144 352.2 768.984 358.08C776.824 364.24 785.784 369.28 796.144 373.2C806.504 377.4 819.384 380.76 834.504 383.28C849.624 385.8 866.704 386.92 885.464 386.92H898.064C916.544 386.92 933.624 385.8 948.744 383.28C963.864 380.76 976.744 377.4 987.104 373.2C997.184 369.28 1006.42 364.24 1014.26 358.08C1022.1 352.2 1027.98 346.32 1032.46 340.16C1036.94 334 1040.3 327.56 1043.1 320.28C1045.9 313 1047.58 306.56 1048.42 300.68C1049.26 295.08 1049.82 288.92 1049.82 282.48V274.08C1049.82 267.92 1049.26 261.76 1048.42 255.88C1047.58 250.28 1045.9 243.84 1043.1 236.56C1040.3 229.56 1036.94 223.12 1032.46 216.96C1027.98 211.08 1021.82 205.2 1013.98 199.32C1006.14 193.44 997.184 188.4 986.824 184.48C976.464 180.56 963.584 177.2 948.464 174.68C933.344 172.16 916.544 170.76 898.064 170.76H885.464ZM967.504 279.96C967.504 286.12 966.384 292 964.144 297.6C961.904 303.2 957.984 308.52 952.944 313.56C947.624 318.88 939.784 323.08 929.144 326.16C918.504 329.24 906.184 330.64 891.624 330.64C877.064 330.64 864.464 329.24 853.824 325.88C843.184 322.8 835.344 318.6 830.304 313.28C824.984 307.96 821.344 302.64 819.104 297.04C816.864 291.44 815.744 285.56 815.744 279.4V276.04C815.744 269.88 816.584 264.28 818.824 258.96C821.064 253.64 824.704 248.32 830.024 243.28C835.064 238.24 842.904 234.32 853.544 231.24C863.904 228.44 876.504 226.76 891.624 226.76C906.184 226.76 918.504 228.44 929.144 231.24C939.504 234.32 947.344 238.24 952.664 243.28C957.984 248.32 961.904 253.64 964.144 258.96C966.384 264.28 967.504 269.88 967.504 276.04V279.96ZM1191.16 386.08C1205.16 386.08 1218.32 384.96 1230.08 382.44C1241.84 380.2 1251.64 376.84 1259.76 372.92C1267.88 369 1275.16 364.24 1281.32 358.64C1287.48 353.04 1292.24 347.16 1295.88 341C1299.24 334.84 1302.32 328.4 1304.56 321.12C1306.8 313.84 1308.2 307.12 1309.04 300.96C1309.6 294.8 1310.16 288.36 1310.16 281.36V174.68H1230.64V279.68C1230.64 294.24 1226.72 305.44 1219.44 313.84C1212.16 322.24 1200.4 326.44 1184.44 326.44H1182.2C1153.92 326.44 1138.52 314.68 1136.28 290.6H1058.16V292.28C1058.16 300.68 1058.72 308.52 1060.4 316.08C1062.08 323.64 1065.44 331.76 1070.48 340.72C1075.52 349.68 1082.24 357.24 1090.36 363.68C1098.48 370.12 1109.68 375.44 1124.24 379.64C1138.52 384.12 1155.04 386.08 1174.08 386.08H1191.16ZM1335.15 174.68V383H1567.83V330.92H1413.55V302.36H1562.51V251.68H1413.55V225.64H1565.59V174.68H1335.15ZM1741.74 386.92C1765.54 386.92 1786.54 384.96 1804.74 380.48C1822.94 376.28 1836.94 370.96 1847.02 364.8C1857.1 358.64 1865.22 351.36 1871.66 342.96C1877.82 334.56 1882.02 327.28 1883.98 320.56C1885.66 313.84 1886.78 307.4 1886.78 300.96V296.48H1804.46C1803.9 298.72 1803.34 300.4 1802.78 302.08C1802.22 303.76 1800.26 306.56 1797.46 310.48C1794.38 314.4 1790.74 317.76 1786.26 320.28C1781.78 323.08 1775.06 325.32 1766.38 327.56C1757.42 329.8 1747.34 330.64 1735.86 330.64C1722.42 330.64 1710.94 329.24 1701.42 325.88C1691.9 322.8 1684.62 318.6 1679.58 313C1674.54 307.68 1671.18 302.08 1668.94 296.48C1666.7 290.88 1665.86 285 1665.86 278.84V275.48C1665.86 243 1689.1 226.76 1735.58 226.76C1774.78 226.76 1797.74 237.4 1804.18 258.68H1886.78V255.04C1886.78 250.84 1886.22 246.36 1885.38 241.88C1884.54 237.4 1882.86 232.36 1880.06 226.76C1877.26 221.16 1873.9 215.56 1869.7 210.52C1865.22 205.48 1859.34 200.72 1851.78 195.68C1844.22 190.64 1835.54 186.44 1825.74 182.8C1815.94 179.44 1803.9 176.36 1789.34 174.12C1774.78 171.88 1759.1 170.76 1741.74 170.76H1730.82C1705.9 170.76 1684.06 173.28 1665.58 178.04C1647.1 182.8 1632.54 188.68 1622.46 195.68C1612.38 202.68 1604.26 211.08 1598.1 220.88C1591.94 230.68 1587.74 239.64 1586.06 247.76C1584.38 256.16 1583.54 264.84 1583.54 274.08V282.2C1583.54 291.44 1584.38 300.12 1586.34 308.52C1588.02 316.92 1592.22 326.16 1598.66 335.96C1604.82 346.04 1613.22 354.44 1623.58 361.72C1633.66 369 1647.94 374.88 1666.42 379.64C1684.9 384.68 1706.18 386.92 1730.82 386.92H1741.74ZM1985.7 383H2065.22V231.52H2155.1V174.68H1895.82V231.52H1985.7V383ZM2317.96 386.92C2338.96 386.92 2357.44 385.8 2373.12 383C2388.8 380.2 2401.4 376.84 2410.64 372.36C2419.88 367.88 2427.44 362.56 2433.04 356.12C2438.64 349.68 2442.28 343.24 2444.24 337.08C2445.92 330.92 2447.04 323.92 2447.04 316.08V312.16C2447.04 291.16 2438.36 275.76 2421.56 265.96C2404.48 256.16 2376.2 250.56 2337 249.44L2299.48 248.6C2286.88 248.6 2277.08 247.76 2270.36 246.08C2263.36 244.4 2258.88 242.72 2256.92 240.48C2254.96 238.52 2254.12 236 2254.12 232.64V232.36C2254.12 229.28 2254.96 226.76 2256.64 224.8C2258.32 222.84 2262.52 221.16 2269.8 219.48C2276.8 217.8 2286.88 216.96 2300.04 216.96H2302.84C2334.76 216.96 2351.56 224.52 2353.24 239.08H2439.76V236.84C2439.76 193.16 2397.48 171.04 2313.2 171.04H2288.28C2269.24 171.04 2252.72 172.44 2238.44 174.68C2224.16 176.92 2212.68 180 2204 183.64C2195.04 187.56 2188.04 192.04 2182.72 197.64C2177.12 203.24 2173.48 209.12 2171.52 215C2169.28 220.88 2168.44 227.32 2168.44 234.6V237.12C2168.44 277.16 2202.32 298.16 2270.64 299.84L2309.28 300.96C2323.28 301.52 2333.92 302.64 2341.2 304.32C2348.48 306 2353.24 308.24 2355.2 310.48C2357.16 312.72 2358.28 315.8 2358.28 319.72V320C2358.28 322.8 2357.44 325.32 2356.32 327.56C2355.2 329.8 2352.96 331.76 2349.6 333.72C2346.24 335.68 2340.92 337.08 2333.92 338.2C2326.64 339.32 2317.96 339.6 2307.32 339.6H2304.8C2271.48 339.6 2254.12 329.8 2252.72 310.2H2165.36V313C2165.36 362.28 2207.64 386.92 2292.48 386.92H2317.96Z" fill="#141414"/>
</svg>
