<svg width="1706" height="286" viewBox="0 0 1706 286" fill="none" xmlns="http://www.w3.org/2000/svg">
<path d="M0.575 4.89999V2.89999H-1.425V4.89999H0.575ZM0.575 11.263H-1.425V13.1631L0.472572 13.2604L0.575 11.263ZM0.575 210.637L0.221672 208.668L-1.425 208.964V210.637H0.575ZM0.575 217H-1.425V219H0.575V217ZM119.654 217V219H121.654V217H119.654ZM119.654 210.637H121.654V208.745L119.765 208.64L119.654 210.637ZM95.414 90.043V88.043H93.414V90.043H95.414ZM95.414 79.135H93.414V81.135H95.414V79.135ZM95.414 15.505V13.505H93.414V15.505H95.414ZM150.257 2.89999H0.575V6.89999H150.257V2.89999ZM-1.425 4.89999V11.263H2.575V4.89999H-1.425ZM0.472572 13.2604C6.49975 13.5695 12.0059 13.9645 16.0727 16.4853C19.8772 18.8435 22.815 23.363 22.815 33.079H26.815C26.815 22.4939 23.5413 16.4085 18.1801 13.0854C13.0811 9.92495 6.46725 9.56253 0.677428 9.26562L0.472572 13.2604ZM22.815 33.079V188.821H26.815V33.079H22.815ZM22.815 188.821C22.815 193.707 22.0655 197.156 20.8838 199.636C19.7203 202.077 18.0913 203.678 16.1249 204.815C14.1149 205.978 11.706 206.683 8.95999 207.226C7.59297 207.496 6.17611 207.72 4.70546 207.947C3.24718 208.171 1.72977 208.398 0.221672 208.668L0.928328 212.606C2.37448 212.346 3.83025 212.128 5.31321 211.9C6.78379 211.674 8.2762 211.439 9.7356 211.15C12.6424 210.576 15.555 209.766 18.1279 208.278C20.7443 206.764 22.9596 204.577 24.4947 201.356C26.0117 198.173 26.815 194.086 26.815 188.821H22.815ZM-1.425 210.637V217H2.575V210.637H-1.425ZM0.575 219H119.654V215H0.575V219ZM121.654 217V210.637H117.654V217H121.654ZM119.765 208.64C114.177 208.33 108.661 208.013 104.468 205.511C100.548 203.171 97.414 198.645 97.414 188.821H93.414C93.414 199.601 96.9458 205.68 102.419 208.946C107.619 212.049 114.223 212.338 119.543 212.634L119.765 208.64ZM97.414 188.821V90.043H93.414V188.821H97.414ZM95.414 92.043H150.257V88.043H95.414V92.043ZM150.257 92.043C189.478 92.043 209.827 70.2701 209.827 47.623H205.827C205.827 67.3958 187.998 88.043 150.257 88.043V92.043ZM209.827 47.623C209.827 24.6742 189.176 2.89999 150.257 2.89999V6.89999C187.694 6.89999 205.827 27.5458 205.827 47.623H209.827ZM106.625 17.505C115.717 17.505 122.341 21.1709 126.734 26.6092C131.168 32.0996 133.41 39.5093 133.41 47.017H137.41C137.41 38.7687 134.955 30.4224 129.845 24.0958C124.693 17.7171 116.925 13.505 106.625 13.505V17.505ZM133.41 47.017C133.41 54.685 131.163 62.2516 126.722 67.856C122.324 73.4058 115.702 77.135 106.625 77.135V81.135C116.94 81.135 124.71 76.8347 129.857 70.3403C134.96 63.9004 137.41 55.4079 137.41 47.017H133.41ZM106.625 77.135H95.414V81.135H106.625V77.135ZM97.414 79.135V15.505H93.414V79.135H97.414ZM95.414 17.505H106.625V13.505H95.414V17.505ZM427.983 181.549L429.902 180.988L429.898 180.974L429.894 180.961L427.983 181.549ZM383.745 84.589L383.692 82.5897L383.329 86.5453L383.745 84.589ZM220.428 4.89999V2.89999H218.428V4.89999H220.428ZM220.428 11.263H218.428V13.1631L220.325 13.2604L220.428 11.263ZM220.428 210.637L220.325 208.64L218.428 208.737V210.637H220.428ZM220.428 217H218.428V219H220.428V217ZM339.507 217V219H341.507V217H339.507ZM339.507 210.637H341.507V208.745L339.617 208.64L339.507 210.637ZM315.267 89.74V87.74H313.267V89.74H315.267ZM357.384 187.912L359.251 187.195L359.25 187.193L357.384 187.912ZM453.738 217.909V219.909H455.738V217.909H453.738ZM453.738 211.849H455.738V209.849H453.738V211.849ZM315.267 78.832H313.267V80.832H315.267V78.832ZM315.267 15.505V13.505H313.267V15.505H315.267ZM429.894 180.961C426.643 170.394 425.871 159.913 425.669 149.826C425.469 139.846 425.837 130.007 424.779 121.24C423.71 112.377 421.161 104.238 414.917 97.5248C408.691 90.8293 399.011 85.7875 384.16 82.6327L383.329 86.5453C397.718 89.602 406.521 94.3698 411.988 100.249C417.439 106.11 419.794 113.311 420.808 121.719C421.834 130.223 421.463 139.586 421.67 149.907C421.875 160.121 422.656 171.039 426.071 182.137L429.894 180.961ZM383.797 86.5883C407.476 85.9652 429.68 69.3946 429.68 47.32H425.68C425.68 66.4534 406.069 82.0008 383.692 82.5897L383.797 86.5883ZM429.68 47.32C429.68 24.6662 409.019 2.89999 370.11 2.89999V6.89999C407.556 6.89999 425.68 27.5537 425.68 47.32H429.68ZM370.11 2.89999H220.428V6.89999H370.11V2.89999ZM218.428 4.89999V11.263H222.428V4.89999H218.428ZM220.325 13.2604C226.352 13.5695 231.858 13.9645 235.925 16.4853C239.73 18.8435 242.668 23.363 242.668 33.079H246.668C246.668 22.4939 243.394 16.4085 238.033 13.0854C232.934 9.92495 226.32 9.56253 220.53 9.26562L220.325 13.2604ZM242.668 33.079V188.821H246.668V33.079H242.668ZM242.668 188.821C242.668 198.537 239.73 203.057 235.925 205.415C231.858 207.935 226.352 208.331 220.325 208.64L220.53 212.634C226.32 212.337 232.934 211.975 238.033 208.815C243.394 205.491 246.668 199.406 246.668 188.821H242.668ZM218.428 210.637V217H222.428V210.637H218.428ZM220.428 219H339.507V215H220.428V219ZM341.507 217V210.637H337.507V217H341.507ZM339.617 208.64C334.03 208.33 328.513 208.013 324.321 205.511C320.401 203.171 317.267 198.645 317.267 188.821H313.267C313.267 199.601 316.798 205.68 322.271 208.946C327.472 212.049 334.075 212.338 339.396 212.634L339.617 208.64ZM317.267 188.821V89.74H313.267V188.821H317.267ZM315.267 91.74H329.811V87.74H315.267V91.74ZM329.811 91.74C334.275 91.74 337.666 92.6403 340.275 94.168C342.875 95.6906 344.835 97.9161 346.316 100.796C349.332 106.66 350.271 115.044 350.46 125.002C350.554 129.941 350.465 135.172 350.388 140.576C350.311 145.966 350.246 151.517 350.394 157.031C350.69 168.036 351.833 179.067 355.517 188.631L359.25 187.193C355.814 178.274 354.684 167.792 354.393 156.924C354.247 151.502 354.31 146.026 354.387 140.633C354.464 135.255 354.555 129.947 354.459 124.926C354.27 114.961 353.353 105.733 349.873 98.9664C348.106 95.5303 345.659 92.6853 342.296 90.7162C338.942 88.7524 334.815 87.74 329.811 87.74V91.74ZM355.516 188.629C360.757 202.285 370.269 210.167 383.095 214.574C395.786 218.934 411.763 219.909 430.104 219.909V215.909C411.781 215.909 396.398 214.915 384.394 210.791C372.526 206.713 364.01 199.597 359.251 187.195L355.516 188.629ZM430.104 219.909H453.738V215.909H430.104V219.909ZM455.738 217.909V211.849H451.738V217.909H455.738ZM453.738 209.849C449.492 209.849 444.999 207.601 440.775 202.768C436.552 197.937 432.727 190.65 429.902 180.988L426.063 182.11C428.996 192.143 433.048 200.006 437.763 205.401C442.478 210.795 447.984 213.849 453.738 213.849V209.849ZM326.478 76.832H315.267V80.832H326.478V76.832ZM317.267 78.832V15.505H313.267V78.832H317.267ZM315.267 17.505H326.478V13.505H315.267V17.505ZM326.478 17.505C335.569 17.505 342.194 21.1709 346.586 26.6092C351.021 32.0996 353.263 39.5093 353.263 47.017H357.263C357.263 38.7687 354.808 30.4224 349.698 24.0958C344.546 17.7171 336.778 13.505 326.478 13.505V17.505ZM353.263 47.017C353.263 54.6694 350.949 62.1565 346.473 67.6888C342.038 73.1725 335.41 76.832 326.478 76.832V80.832C336.634 80.832 344.399 76.6135 349.583 70.2044C354.728 63.844 357.263 55.4236 357.263 47.017H353.263ZM570.714 223.545C601.822 223.545 628.812 214.961 648.034 196.631C667.275 178.285 678.461 150.434 678.461 112.465H674.461C674.461 149.64 663.529 176.329 645.274 193.737C627 211.161 601.116 219.545 570.714 219.545V223.545ZM678.461 112.465C678.461 74.6472 667.276 46.0606 648.065 26.9275C628.86 7.80028 601.87 -1.64501 570.714 -1.64501V2.35499C601.068 2.35499 626.951 11.5442 645.243 29.7617C663.528 47.9734 674.461 75.4418 674.461 112.465H678.461ZM570.714 -1.64501C539.559 -1.64501 512.495 7.79993 493.215 26.9247C473.928 46.0564 462.664 74.6434 462.664 112.465H466.664C466.664 75.4456 477.671 47.9776 496.032 29.7645C514.4 11.5446 540.361 2.35499 570.714 2.35499V-1.64501ZM462.664 112.465C462.664 150.438 473.929 178.289 493.246 196.634C512.544 214.961 539.608 223.545 570.714 223.545V219.545C540.312 219.545 514.351 211.161 496.001 193.734C477.67 176.325 466.664 149.636 466.664 112.465H462.664ZM570.714 208.94C565.244 208.94 560.722 207.565 556.932 204.456C553.103 201.314 549.832 196.247 547.193 188.516C541.895 172.992 539.384 147.462 539.384 107.617H535.384C535.384 147.461 537.873 173.592 543.408 189.808C546.185 197.947 549.788 203.768 554.395 207.548C559.042 211.36 564.52 212.94 570.714 212.94V208.94ZM539.384 107.617C539.384 70.6455 541.745 46.7991 546.956 32.2379C549.548 24.9963 552.786 20.2233 556.632 17.2478C560.45 14.294 565.063 12.96 570.714 12.96V8.96C564.398 8.96 558.86 10.4667 554.184 14.0841C549.537 17.6799 545.939 23.2089 543.19 30.8901C537.72 46.1744 535.384 70.6565 535.384 107.617H539.384ZM570.714 12.96C576.279 12.96 580.847 14.3067 584.65 17.3229C588.486 20.3654 591.74 25.2614 594.355 32.7181C599.609 47.7028 602.044 72.3142 602.044 110.647H606.044C606.044 72.3208 603.632 47.0887 598.13 31.3946C595.366 23.512 591.764 17.8598 587.136 14.1889C582.474 10.4918 576.967 8.96 570.714 8.96V12.96ZM602.044 110.647C602.044 148.982 599.685 173.749 594.465 188.889C591.867 196.424 588.62 201.394 584.768 204.491C580.951 207.558 576.349 208.94 570.714 208.94V212.94C577.048 212.94 582.597 211.367 587.274 207.608C591.915 203.877 595.504 198.148 598.247 190.192C603.708 174.351 606.044 148.971 606.044 110.647H602.044ZM814.691 4.89999H816.691V2.89999H814.691V4.89999ZM695.915 4.89999V2.89999H693.915V4.89999H695.915ZM695.915 11.263H693.915V13.1605L695.81 13.2602L695.915 11.263ZM637.133 242.149L638.831 241.092L637.741 239.34L636.024 240.485L637.133 242.149ZM628.043 248.209L626.934 246.545L625.353 247.599L626.324 249.232L628.043 248.209ZM726.215 273.964L726.047 271.971L725.877 271.985L725.711 272.028L726.215 273.964ZM814.691 11.263L814.805 13.2597L816.691 13.152V11.263H814.691ZM814.691 2.89999H695.915V6.89999H814.691V2.89999ZM693.915 4.89999V11.263H697.915V4.89999H693.915ZM695.81 13.2602C701.684 13.5694 707.113 13.9636 711.141 16.4814C714.913 18.8389 717.852 23.3624 717.852 33.079H721.852C721.852 22.4945 718.579 16.413 713.261 13.0894C708.2 9.92585 701.661 9.56262 696.02 9.26576L695.81 13.2602ZM717.852 33.079V212.455H721.852V33.079H717.852ZM717.852 212.455C717.852 232.982 715.038 246.162 709.495 254.193C704.091 262.023 695.831 265.298 683.795 265.298V269.298C696.605 269.298 706.374 265.756 712.787 256.466C719.06 247.377 721.852 233.136 721.852 212.455H717.852ZM683.795 265.298C664.214 265.298 646.966 254.166 638.831 241.092L635.435 243.206C644.268 257.402 662.774 269.298 683.795 269.298V265.298ZM636.024 240.485L626.934 246.545L629.152 249.873L638.242 243.813L636.024 240.485ZM626.324 249.232C641.199 274.234 682.012 287.535 726.719 275.9L725.711 272.028C681.942 283.421 643.369 270.058 629.762 247.186L626.324 249.232ZM726.383 275.957C751.986 273.798 768.719 264.263 778.978 249.782C789.172 235.393 792.754 216.424 792.754 195.79H788.754C788.754 216.061 785.216 234.058 775.714 247.469C766.278 260.789 750.742 269.888 726.047 271.971L726.383 275.957ZM792.754 195.79V33.079H788.754V195.79H792.754ZM792.754 33.079C792.754 23.2546 795.889 18.7243 799.777 16.3855C803.931 13.8864 809.371 13.5703 814.805 13.2597L814.577 9.26625C809.406 9.5617 802.878 9.85157 797.715 12.958C792.285 16.2247 788.754 22.2994 788.754 33.079H792.754ZM816.691 11.263V4.89999H812.691V11.263H816.691ZM1012.72 79.135L1010.73 79.2804L1010.86 81.135H1012.72V79.135ZM1018.78 79.135V81.135H1020.78V79.135H1018.78ZM1018.78 4.89999H1020.78V2.89999H1018.78V4.89999ZM828.499 4.89999V2.89999H826.499V4.89999H828.499ZM828.499 11.263H826.499V13.1631L828.396 13.2604L828.499 11.263ZM828.499 210.637L828.396 208.64L826.499 208.737V210.637H828.499ZM828.499 217H826.499V219H828.499V217ZM1018.78 217V219H1020.78V217H1018.78ZM1018.78 142.765H1020.78V140.765H1018.78V142.765ZM1012.72 142.765V140.765H1010.86L1010.73 142.62L1012.72 142.765ZM923.338 206.395H921.338V208.395H923.338V206.395ZM923.338 76.105V74.105H921.338V76.105H923.338ZM984.241 128.524L982.421 129.354L983.058 130.749L984.57 130.497L984.241 128.524ZM989.695 127.615L990.024 129.588L992.324 129.204L991.595 126.99L989.695 127.615ZM957.274 29.14L959.174 28.5146L958.637 26.8852L956.945 27.1672L957.274 29.14ZM951.82 30.049L951.491 28.0762L949.531 28.4029L949.845 30.365L951.82 30.049ZM923.338 65.5H921.338V67.5H923.338V65.5ZM923.338 15.505V13.505H921.338V15.505H923.338ZM950.305 17.505C974.623 17.505 989.056 25.9199 997.748 37.6056C1006.53 49.4167 1009.68 64.8604 1010.73 79.2804L1014.72 78.9895C1013.65 64.3216 1010.43 47.9503 1000.96 35.2183C991.394 22.3611 975.679 13.505 950.305 13.505V17.505ZM1012.72 81.135H1018.78V77.135H1012.72V81.135ZM1020.78 79.135V4.89999H1016.78V79.135H1020.78ZM1018.78 2.89999H828.499V6.89999H1018.78V2.89999ZM826.499 4.89999V11.263H830.499V4.89999H826.499ZM828.396 13.2604C834.424 13.5695 839.93 13.9645 843.997 16.4853C847.801 18.8435 850.739 23.363 850.739 33.079H854.739C854.739 22.4939 851.465 16.4085 846.104 13.0854C841.005 9.92495 834.391 9.56253 828.601 9.26562L828.396 13.2604ZM850.739 33.079V188.821H854.739V33.079H850.739ZM850.739 188.821C850.739 198.537 847.801 203.057 843.997 205.415C839.93 207.935 834.424 208.331 828.396 208.64L828.601 212.634C834.391 212.337 841.005 211.975 846.104 208.815C851.465 205.491 854.739 199.406 854.739 188.821H850.739ZM826.499 210.637V217H830.499V210.637H826.499ZM828.499 219H1018.78V215H828.499V219ZM1020.78 217V142.765H1016.78V217H1020.78ZM1018.78 140.765H1012.72V144.765H1018.78V140.765ZM1010.73 142.62C1009.68 157.04 1006.53 172.483 997.748 184.294C989.056 195.98 974.623 204.395 950.305 204.395V208.395C975.679 208.395 991.394 199.539 1000.96 186.682C1010.43 173.95 1013.65 157.578 1014.72 142.91L1010.73 142.62ZM950.305 204.395H923.338V208.395H950.305V204.395ZM925.338 206.395V76.105H921.338V206.395H925.338ZM923.338 78.105H930.004V74.105H923.338V78.105ZM930.004 78.105C937.881 78.105 947.405 82.9951 956.876 92.0563C966.287 101.06 975.39 113.946 982.421 129.354L986.06 127.694C978.85 111.893 969.47 98.5695 959.641 89.166C949.872 79.8198 939.397 74.105 930.004 74.105V78.105ZM984.57 130.497L990.024 129.588L989.366 125.642L983.912 126.551L984.57 130.497ZM991.595 126.99L959.174 28.5146L955.374 29.7654L987.795 128.24L991.595 126.99ZM956.945 27.1672L951.491 28.0762L952.149 32.0218L957.603 31.1128L956.945 27.1672ZM949.845 30.365C951.644 41.6096 951.02 49.8946 947.925 55.3029C944.95 60.5007 939.402 63.5 930.004 63.5V67.5C940.301 67.5 947.478 64.1363 951.397 57.2898C955.195 50.6539 955.632 41.2133 953.795 29.733L949.845 30.365ZM930.004 63.5H923.338V67.5H930.004V63.5ZM925.338 65.5V15.505H921.338V65.5H925.338ZM923.338 17.505H950.305V13.505H923.338V17.505ZM1262.93 167.914L1264.86 168.421L1265.33 166.609L1263.56 166.017L1262.93 167.914ZM1252.93 164.581L1253.56 162.684L1251.74 162.077L1251.06 163.87L1252.93 164.581ZM1248.08 74.59L1246.21 75.2936L1246.69 76.59H1248.08V74.59ZM1259.59 74.59V76.59H1261.87L1261.57 74.3288L1259.59 74.59ZM1252.93 23.989L1254.91 23.7278L1254.81 22.948L1254.2 22.4471L1252.93 23.989ZM1172.63 -1.64501C1137.54 -1.64501 1106.73 9.08466 1084.68 28.7846C1062.6 48.5066 1049.43 77.0911 1049.43 112.465H1053.43C1053.43 78.1489 1066.17 50.6784 1087.34 31.7679C1108.54 12.8353 1138.34 2.35499 1172.63 2.35499V-1.64501ZM1049.43 112.465C1049.43 149.909 1065.1 177.688 1089.11 196.053C1113.06 214.37 1145.18 223.242 1178.09 223.242V219.242C1145.84 219.242 1114.64 210.54 1091.54 192.876C1068.51 175.259 1053.43 148.65 1053.43 112.465H1049.43ZM1178.09 223.242C1208.35 223.242 1228.81 214.398 1242.36 203.042C1255.87 191.711 1262.35 177.995 1264.86 168.421L1260.99 167.407C1258.65 176.316 1252.56 189.264 1239.79 199.977C1227.04 210.663 1207.52 219.242 1178.09 219.242V223.242ZM1263.56 166.017L1253.56 162.684L1252.29 166.478L1262.29 169.811L1263.56 166.017ZM1251.06 163.87C1243.2 184.535 1224.3 197.426 1198.99 197.426V201.426C1225.8 201.426 1246.29 187.653 1254.8 165.292L1251.06 163.87ZM1198.99 197.426C1175.51 197.426 1157.01 187.927 1144.33 171.574C1131.61 155.166 1124.64 131.703 1124.64 103.678H1120.64C1120.64 132.314 1127.75 156.725 1141.17 174.025C1154.62 191.381 1174.3 201.426 1198.99 201.426V197.426ZM1124.64 103.678C1124.64 76.7481 1129.38 53.9641 1138.68 37.9861C1147.92 22.1063 1161.63 12.96 1179.9 12.96V8.96C1160 8.96 1145.07 19.0542 1135.22 35.9741C1125.43 52.7959 1120.64 76.3709 1120.64 103.678H1124.64ZM1179.9 12.96C1204.19 12.96 1229.39 30.5571 1246.21 75.2936L1249.95 73.8864C1232.83 28.3289 1206.52 8.96 1179.9 8.96V12.96ZM1248.08 76.59H1259.59V72.59H1248.08V76.59ZM1261.57 74.3288L1254.91 23.7278L1250.94 24.2502L1257.61 74.8512L1261.57 74.3288ZM1254.2 22.4471C1239.85 10.5918 1211.5 -1.64501 1172.63 -1.64501V2.35499C1210.72 2.35499 1238.13 14.3582 1251.65 25.5309L1254.2 22.4471ZM1494.55 4.89999H1496.55V2.89999H1494.55V4.89999ZM1282.45 4.89999V2.89999H1280.45V4.89999H1282.45ZM1282.45 79.135H1280.45V81.135H1282.45V79.135ZM1288.51 79.135V81.135H1290.37L1290.5 79.282L1288.51 79.135ZM1353.35 13.081H1355.35V11.081H1353.35V13.081ZM1329.11 213.061L1328.76 211.092L1327.11 211.388V213.061H1329.11ZM1329.11 217H1327.11V219H1329.11V217ZM1448.19 217V219H1450.19V217H1448.19ZM1448.19 213.061H1450.19V211.396L1448.55 211.094L1448.19 213.061ZM1423.95 13.081V11.081H1421.95V13.081H1423.95ZM1488.49 79.135L1486.5 79.2835L1486.63 81.135H1488.49V79.135ZM1494.55 79.135V81.135H1496.55V79.135H1494.55ZM1494.55 2.89999H1282.45V6.89999H1494.55V2.89999ZM1280.45 4.89999V79.135H1284.45V4.89999H1280.45ZM1282.45 81.135H1288.51V77.135H1282.45V81.135ZM1290.5 79.282C1291.56 65.0198 1294.77 48.9217 1303.23 36.4353C1311.6 24.0826 1325.21 15.081 1347.59 15.081V11.081C1323.92 11.081 1309.05 20.7139 1299.92 34.1919C1290.88 47.5363 1287.59 64.4652 1286.52 78.988L1290.5 79.282ZM1347.59 15.081H1353.35V11.081H1347.59V15.081ZM1351.35 13.081V188.821H1355.35V13.081H1351.35ZM1351.35 188.821C1351.35 198.518 1348.42 203.346 1344.5 206.128C1340.36 209.072 1334.81 210.006 1328.76 211.092L1329.46 215.03C1335.23 213.995 1341.8 212.96 1346.82 209.389C1352.07 205.657 1355.35 199.425 1355.35 188.821H1351.35ZM1327.11 213.061V217H1331.11V213.061H1327.11ZM1329.11 219H1448.19V215H1329.11V219ZM1450.19 217V213.061H1446.19V217H1450.19ZM1448.55 211.094C1442.65 210.006 1437.09 209.074 1432.91 206.124C1428.95 203.334 1425.95 198.5 1425.95 188.821H1421.95C1421.95 199.443 1425.32 205.669 1430.6 209.393C1435.66 212.957 1442.22 213.995 1447.83 215.028L1448.55 211.094ZM1425.95 188.821V13.081H1421.95V188.821H1425.95ZM1423.95 15.081H1430.01V11.081H1423.95V15.081ZM1430.01 15.081C1452.07 15.081 1465.54 24.1434 1473.84 36.54C1482.23 49.0693 1485.44 65.1741 1486.5 79.2835L1490.48 78.9865C1489.41 64.6139 1486.12 47.6917 1477.16 34.3145C1468.11 20.8045 1453.4 11.081 1430.01 11.081V15.081ZM1488.49 81.135H1494.55V77.135H1488.49V81.135ZM1496.55 79.135V4.89999H1492.55V79.135H1496.55ZM1683.54 74.893L1681.65 75.5495L1682.11 76.893H1683.54V74.893ZM1695.05 74.893V76.893H1697.42L1697.02 74.5606L1695.05 74.893ZM1685.96 20.959L1687.93 20.6266L1687.81 19.8965L1687.24 19.4226L1685.96 20.959ZM1528.7 140.038L1530.63 139.485L1530.21 138.038H1528.7V140.038ZM1514.77 140.038V138.038H1512.44L1512.79 140.34L1514.77 140.038ZM1523.25 195.487L1521.27 195.789L1521.36 196.367L1521.75 196.806L1523.25 195.487ZM1614.15 223.545C1637.75 223.545 1660.94 220.358 1678.29 211.273C1687 206.716 1694.28 200.649 1699.39 192.716C1704.5 184.773 1707.35 175.071 1707.35 163.369H1703.35C1703.35 174.392 1700.68 183.325 1696.02 190.551C1691.37 197.787 1684.66 203.423 1676.44 207.729C1659.93 216.369 1637.51 219.545 1614.15 219.545V223.545ZM1707.35 163.369C1707.35 148.548 1699.81 135.822 1688.9 124.49C1677.99 113.168 1663.51 103.015 1649.21 93.3476C1634.82 83.625 1620.66 74.4154 1610.05 64.8614C1599.41 55.2755 1592.82 45.7464 1592.82 35.503H1588.82C1588.82 47.5301 1596.54 58.0748 1607.38 67.8334C1618.24 77.6241 1632.72 87.0301 1646.97 96.6616C1661.3 106.349 1675.44 116.288 1686.02 127.265C1696.58 138.232 1703.35 150.011 1703.35 163.369H1707.35ZM1592.82 35.503C1592.82 27.5679 1595.69 22.0651 1600.53 18.4752C1605.47 14.8143 1612.71 12.96 1621.72 12.96V8.96C1612.26 8.96 1604.04 10.8932 1598.15 15.2618C1592.16 19.7014 1588.82 26.4701 1588.82 35.503H1592.82ZM1621.72 12.96C1642.83 12.96 1666.89 33.0823 1681.65 75.5495L1685.43 74.2365C1670.49 31.2577 1645.46 8.96 1621.72 8.96V12.96ZM1683.54 76.893H1695.05V72.893H1683.54V76.893ZM1697.02 74.5606L1687.93 20.6266L1683.99 21.2914L1693.08 75.2254L1697.02 74.5606ZM1687.24 19.4226C1672.21 6.89676 1646.54 -1.64501 1611.12 -1.64501V2.35499C1646 2.35499 1670.62 10.7812 1684.68 22.4954L1687.24 19.4226ZM1611.12 -1.64501C1585.2 -1.64501 1563.11 2.69197 1547.44 12.2045C1531.63 21.7967 1522.46 36.5993 1522.46 57.016H1526.46C1526.46 38.0427 1534.86 24.5148 1549.51 15.6239C1564.29 6.6535 1585.53 2.35499 1611.12 2.35499V-1.64501ZM1522.46 57.016C1522.46 74.157 1529.96 88.9722 1540.97 102.005C1551.97 115.019 1566.57 126.387 1581.02 136.668C1595.57 147.018 1609.84 156.184 1620.6 165.001C1625.96 169.392 1630.32 173.603 1633.33 177.712C1636.34 181.819 1637.9 185.685 1637.9 189.427H1641.9C1641.9 184.534 1639.86 179.849 1636.56 175.347C1633.26 170.846 1628.6 166.388 1623.13 161.908C1612.24 152.98 1597.65 143.587 1583.34 133.409C1568.94 123.162 1554.68 112.032 1544.03 99.4236C1533.39 86.8339 1526.46 72.902 1526.46 57.016H1522.46ZM1637.9 189.427C1637.9 195.962 1635.52 200.586 1630.71 203.692C1625.74 206.903 1617.95 208.637 1606.88 208.637V212.637C1618.23 212.637 1626.95 210.886 1632.88 207.052C1638.98 203.114 1641.9 197.133 1641.9 189.427H1637.9ZM1606.88 208.637C1579.74 208.637 1543.75 185.136 1530.63 139.485L1526.78 140.591C1540.32 187.658 1577.66 212.637 1606.88 212.637V208.637ZM1528.7 138.038H1514.77V142.038H1528.7V138.038ZM1512.79 140.34L1521.27 195.789L1525.23 195.185L1516.74 139.736L1512.79 140.34ZM1521.75 196.806C1528.66 204.689 1542.63 211.33 1559.18 216.008C1575.83 220.717 1595.48 223.545 1614.15 223.545V219.545C1595.85 219.545 1576.57 216.768 1560.27 212.159C1543.86 207.52 1530.86 201.132 1524.75 194.168L1521.75 196.806Z" fill="#141414"/>
</svg>
