<svg width="1706" height="286" viewBox="0 0 1706 286" fill="none" xmlns="http://www.w3.org/2000/svg">
<path d="M150.257 4.89999H0.575V11.263C12.392 11.869 24.815 12.778 24.815 33.079V188.821C24.815 209.122 12.392 208.516 0.575 210.637V217H119.654V210.637C108.746 210.031 95.414 209.425 95.414 188.821V90.043H150.257C188.738 90.043 207.827 68.833 207.827 47.623C207.827 26.11 188.435 4.89999 150.257 4.89999ZM106.625 15.505C126.017 15.505 135.41 31.261 135.41 47.017C135.41 63.076 126.017 79.135 106.625 79.135H95.414V15.505H106.625ZM427.983 181.549C414.651 138.22 442.224 97.012 383.745 84.589C406.773 83.983 427.68 67.924 427.68 47.32C427.68 26.11 408.288 4.89999 370.11 4.89999H220.428V11.263C232.245 11.869 244.668 12.778 244.668 33.079V188.821C244.668 209.122 232.245 210.031 220.428 210.637V217H339.507V210.637C328.599 210.031 315.267 209.425 315.267 188.821V89.74H329.811C367.686 89.74 343.143 150.946 357.384 187.912C367.383 213.97 393.441 217.909 430.104 217.909H453.738V211.849C443.739 211.849 433.74 201.244 427.983 181.549ZM326.478 78.832H315.267V15.505H326.478C345.87 15.505 355.263 31.261 355.263 47.017C355.263 63.076 345.567 78.832 326.478 78.832ZM570.714 221.545C632.223 221.545 676.461 187.609 676.461 112.465C676.461 37.624 632.223 0.35499 570.714 0.35499C509.205 0.35499 464.664 37.624 464.664 112.465C464.664 187.609 509.205 221.545 570.714 221.545ZM570.714 210.94C547.383 210.94 537.384 187.306 537.384 107.617C537.384 33.685 546.777 10.96 570.714 10.96C594.348 10.96 604.044 33.988 604.044 110.647C604.044 187.306 594.651 210.94 570.714 210.94ZM814.691 4.89999H695.915V11.263C707.429 11.869 719.852 12.778 719.852 33.079V212.455C719.852 253.663 708.641 267.298 683.795 267.298C663.494 267.298 645.617 255.784 637.133 242.149L628.043 248.209C642.284 272.146 681.977 285.478 726.215 273.964C776.513 269.722 790.754 236.695 790.754 195.79V33.079C790.754 12.475 804.086 11.869 814.691 11.263V4.89999ZM950.305 15.505C999.997 15.505 1010.6 50.047 1012.72 79.135H1018.78V4.89999H828.499V11.263C840.316 11.869 852.739 12.778 852.739 33.079V188.821C852.739 209.122 840.316 210.031 828.499 210.637V217H1018.78V142.765H1012.72C1010.6 171.853 999.997 206.395 950.305 206.395H923.338V76.105H930.004C947.275 76.105 970 97.315 984.241 128.524L989.695 127.615L957.274 29.14L951.82 30.049C955.456 52.774 949.699 65.5 930.004 65.5H923.338V15.505H950.305ZM1172.63 0.35499C1103.24 0.35499 1051.43 42.775 1051.43 112.465C1051.43 186.094 1112.94 221.242 1178.09 221.242C1237.78 221.242 1258.08 186.397 1262.93 167.914L1252.93 164.581C1244.75 186.094 1225.05 199.426 1198.99 199.426C1150.82 199.426 1122.64 160.339 1122.64 103.678C1122.64 49.441 1141.73 10.96 1179.9 10.96C1205.36 10.96 1231.11 29.443 1248.08 74.59H1259.59L1252.93 23.989C1238.99 12.475 1211.11 0.35499 1172.63 0.35499ZM1494.55 4.89999H1282.45V79.135H1288.51C1290.63 50.35 1301.54 13.081 1347.59 13.081H1353.35V188.821C1353.35 209.122 1340.93 210.94 1329.11 213.061V217H1448.19V213.061C1436.68 210.94 1423.95 209.122 1423.95 188.821V13.081H1430.01C1475.46 13.081 1486.37 50.653 1488.49 79.135H1494.55V4.89999ZM1614.15 221.545C1661.11 221.545 1705.35 208.819 1705.35 163.369C1705.35 107.011 1590.82 80.044 1590.82 35.503C1590.82 18.535 1603.24 10.96 1621.72 10.96C1644.15 10.96 1668.69 32.17 1683.54 74.893H1695.05L1685.96 20.959C1671.42 8.83899 1646.27 0.35499 1611.12 0.35499C1559.61 0.35499 1524.46 17.626 1524.46 57.016C1524.46 123.07 1639.9 154.885 1639.9 189.427C1639.9 203.668 1629.3 210.637 1606.88 210.637C1578.7 210.637 1542.04 186.397 1528.7 140.038H1514.77L1523.25 195.487C1536.28 210.334 1577.18 221.545 1614.15 221.545Z" fill="#141414"/>
</svg>
